# Blender v2.91.2 OBJ File: 'lvl.blend'
# www.blender.org
mtllib navmesh.mtl
v -1.000000 0.156346 2.069491
v -1.000000 0.156346 -2.062000
v -1.000000 0.156346 3.863175
v -1.000000 0.156346 -3.855684
v 1.000000 0.156346 -3.855684
v 1.000000 0.156346 3.863175
v 4.048455 1.980522 -2.062000
v 4.048455 1.980522 2.069491
v 4.048455 1.980522 -3.855684
v 4.048455 1.980522 3.863175
v 9.766749 1.980522 -2.062000
v 9.766749 1.980522 -3.855684
v 9.766749 1.980522 3.863175
v 12.714128 0.157300 -2.062000
v 12.714128 0.157300 2.069491
v 12.714128 0.157300 -3.855684
v 12.714128 0.157300 3.863175
v 1.000000 0.156346 -2.066586
v 0.999451 0.156823 2.068038
v 14.592254 0.157300 2.069491
v 9.766749 1.980522 2.068669
v 14.592254 0.157300 -2.062000
v 14.592254 0.157300 -3.855684
v 14.592254 0.157300 3.863175
v 12.714128 0.157300 9.900498
v 14.592254 0.157300 9.900498
v 12.714128 0.157300 11.473232
v 14.592254 0.157300 11.473232
v -3.574111 0.157300 9.900498
v -3.574111 0.157300 11.473232
v -3.567637 0.156346 2.069491
v -3.567637 0.156346 3.863175
v -5.083301 0.156346 2.069491
v -5.083301 0.156346 3.863175
v -5.078181 0.157300 9.900498
v -5.078181 0.157300 11.473232
v 4.584555 0.157300 11.473232
v 0.455746 0.157300 11.473232
v 0.455747 0.157300 9.900498
v 4.584556 0.157300 9.900498
v 4.584555 0.157300 20.010059
v 0.455746 0.157300 20.010059
v 11.473225 -0.715120 2.068511
v 2.143874 -0.715371 2.067747
v 11.473225 -0.715120 -2.063548
v 2.142168 -0.715279 -2.064312
v 14.592254 0.157300 -0.684836
v 14.592254 0.157300 0.692327
v 1.000000 0.156346 -0.688862
v 1.000000 0.156346 0.688862
v -1.000000 0.156346 0.692327
v -1.000000 0.156346 -0.684836
v 12.714128 0.157300 -0.684836
v 12.714128 0.157300 0.692327
v 2.142453 -0.715438 0.690003
v 2.142453 -0.715438 -0.687537
v 11.473225 -0.715120 0.691158
v 11.473225 -0.715120 -0.686195
v 7.677499 -0.715197 2.068276
v 5.936090 -0.715265 2.068071
v 7.667603 -0.715173 -2.063803
v 5.939211 -0.715226 -2.064058
v 5.940657 -0.715332 -0.687090
v 7.675022 -0.715226 -0.686643
v 5.940657 -0.715332 0.690388
v 7.675022 -0.715226 0.690773
v 8.047885 -0.715216 -0.686599
v 8.047885 -0.715216 0.690810
v 8.050081 -0.715168 2.068365
v 8.047940 -0.715168 -2.063778
v 5.572334 -0.715304 2.067952
v 5.570231 -0.715231 -2.064082
v 5.570695 -0.715343 -0.687133
v 5.570695 -0.715343 0.690350
v 14.592254 0.157300 0.003746
v 1.000000 0.156346 0.000000
v -1.000000 0.156346 0.003746
v 12.714128 0.157300 0.003746
v 2.142453 -0.715438 0.001233
v 11.473225 -0.715120 0.002481
v 8.047885 -0.715216 0.002106
v 5.570695 -0.715343 0.001608
vt 0.625000 0.500000
vt 0.875000 0.500000
vt 0.875000 0.500000
vt 0.875000 0.750000
vt 0.875000 0.750000
vt 0.875000 0.750000
vt 0.625000 0.750000
vt 0.625000 0.750000
vt 0.625000 0.750000
vt 0.625000 0.500000
vt 0.625000 0.500000
vt 0.625000 0.500000
vt 0.625000 0.500000
vt 0.625000 0.750000
vt 0.625000 0.750000
vt 0.625000 0.500000
vt 0.625000 0.500000
vt 0.625000 0.500000
vt 0.625000 0.500000
vt 0.625000 0.750000
vt 0.875000 0.638889
vt 0.625000 0.666667
vt 0.625000 0.638889
vt 0.625000 0.666667
vt 0.625000 0.638889
vt 0.625000 0.638889
vt 0.625000 0.500000
vt 0.625000 0.750000
vt 0.625000 0.750000
vt 0.625000 0.666667
vt 0.625000 0.638889
vt 0.625000 0.750000
vt 0.625000 0.750000
vt 0.625000 0.750000
vt 0.625000 0.750000
vt 0.625000 0.750000
vt 0.625000 0.750000
vt 0.625000 0.750000
vt 0.875000 0.750000
vt 0.875000 0.750000
vt 0.625000 0.750000
vt 0.875000 0.750000
vt 0.625000 0.750000
vt 0.625000 0.750000
vt 0.625000 0.750000
vt 0.625000 0.750000
vt 0.625000 0.750000
vt 0.625000 0.638889
vt 0.625009 0.666667
vt 0.625000 0.638890
vt 0.625000 0.611113
vt 0.625000 0.583333
vt 0.625001 0.583335
vt 0.625000 0.625000
vt 0.625000 0.625002
vt 0.625000 0.611111
vt 0.625000 0.583333
vt 0.625000 0.583333
vt 0.625000 0.625000
vt 0.625000 0.625000
vt 0.625000 0.611111
vt 0.625000 0.583333
vt 0.625000 0.583333
vt 0.625000 0.625000
vt 0.625000 0.625000
vt 0.625000 0.611111
vt 0.875000 0.583333
vt 0.875000 0.625000
vt 0.000000 0.000000
vt 0.625000 0.611109
vt 0.624983 0.583333
vt 0.624985 0.583333
vt 0.625000 0.611109
vt 0.625001 0.583335
vt 0.625000 0.638887
vt 0.624991 0.666666
vt 0.625000 0.638887
vt 0.625010 0.666667
vt 0.625000 0.638891
vt 0.000000 0.000000
vt 0.000000 0.000000
vt 0.625000 0.611113
vt 0.625000 0.666667
vt 0.625000 0.611111
vt 0.625000 0.624998
vt 0.000000 0.000000
vt 0.000000 0.000000
vt 0.875000 0.611111
vt 0.625000 0.611111
vt 0.625000 0.750000
vt 0.625000 0.500000
vt 0.875000 0.666667
vt 0.625000 0.500000
vt 0.625000 0.666667
vt 0.875000 0.750000
vt 0.625000 0.750000
vt 0.875000 0.750000
vt 0.625000 0.750000
vt 0.624992 0.666666
vn 0.0000 1.0000 0.0000
vn -0.5133 0.8582 0.0004
vn -0.0002 1.0000 0.0003
vn -0.5135 0.8581 0.0000
vn 0.5261 0.8504 0.0000
vn -0.0000 1.0000 -0.0003
vn -0.5751 0.8181 0.0000
vn 0.0000 1.0000 -0.0002
vn 0.6066 0.7950 -0.0000
vn 0.6067 0.7950 0.0000
vn -0.0000 1.0000 0.0001
vn -0.0001 1.0000 -0.0000
vn -0.0002 1.0000 0.0000
vn 0.6062 0.7953 -0.0007
usemtl None
s off
f 18/1/1 4/2/1 2/3/1
f 1/4/1 32/5/1 3/6/1
f 6/7/2 8/8/2 19/9/2
f 1/4/3 6/7/3 19/9/3
f 18/1/4 9/10/4 5/11/4
f 7/12/1 12/13/1 9/10/1
f 8/8/1 13/14/1 21/15/1
f 14/16/1 23/17/1 16/18/1
f 11/19/5 16/18/5 12/13/5
f 13/14/5 15/20/5 21/15/5
f 51/21/6 19/22/6 50/23/6
f 43/24/7 54/25/7 57/26/7
f 7/12/1 21/27/1 11/19/1
f 17/28/1 20/29/1 15/20/1
f 15/30/1 48/31/1 54/25/1
f 17/28/1 26/32/1 24/33/1
f 25/34/1 28/35/1 26/32/1
f 38/36/1 29/37/1 30/38/1
f 31/39/1 34/40/1 32/5/1
f 29/37/1 36/41/1 30/38/1
f 34/40/8 29/42/8 32/5/8
f 27/43/1 40/44/1 37/45/1
f 37/45/1 39/46/1 38/36/1
f 38/36/1 41/47/1 37/45/1
f 19/22/9 55/48/9 50/23/9
f 69/49/1 57/26/1 68/50/1
f 67/51/1 45/52/1 70/53/1
f 68/50/1 80/54/1 81/55/1
f 49/56/10 46/57/10 18/58/10
f 50/23/9 79/59/9 76/60/9
f 53/61/1 22/62/1 14/63/1
f 54/25/1 75/64/1 78/65/1
f 58/66/7 14/63/7 45/52/7
f 57/26/7 78/65/7 80/54/7
f 2/67/1 49/56/1 18/58/1
f 77/68/1 50/23/1 76/60/1
f 67/51/1 64/69/1 81/55/1
f 73/70/11 62/71/11 72/72/11
f 63/73/11 61/74/11 62/71/11
f 74/75/1 60/76/1 65/77/1
f 65/77/12 59/78/12 66/79/12
f 65/80/1 82/81/1 74/75/1
f 64/82/1 70/53/1 61/74/1
f 59/78/1 68/50/1 66/79/1
f 44/83/1 74/75/1 55/48/1
f 56/84/11 72/72/11 46/57/11
f 55/48/1 82/85/1 79/59/1
f 79/59/1 73/70/1 56/84/1
f 73/70/1 82/85/1 63/86/1
f 68/50/1 81/55/1 66/87/1
f 52/88/1 76/60/1 49/56/1
f 80/54/7 53/61/7 58/66/7
f 78/65/1 47/89/1 53/61/1
f 76/60/9 56/84/9 49/56/9
f 81/55/1 58/66/1 67/51/1
f 18/1/1 5/11/1 4/2/1
f 1/4/1 31/39/1 32/5/1
f 6/7/4 10/90/4 8/8/4
f 1/4/1 3/6/1 6/7/1
f 18/1/4 7/12/4 9/10/4
f 7/12/1 11/19/1 12/13/1
f 8/8/1 10/90/1 13/14/1
f 14/16/1 22/91/1 23/17/1
f 11/19/5 14/16/5 16/18/5
f 13/14/5 17/28/5 15/20/5
f 51/21/13 1/92/13 19/22/13
f 43/24/7 15/30/7 54/25/7
f 7/12/1 8/93/1 21/27/1
f 17/28/1 24/33/1 20/29/1
f 15/30/1 20/94/1 48/31/1
f 17/28/1 25/34/1 26/32/1
f 25/34/1 27/43/1 28/35/1
f 38/36/1 39/46/1 29/37/1
f 31/39/1 33/95/1 34/40/1
f 29/37/1 35/96/1 36/41/1
f 34/40/8 35/97/8 29/42/8
f 27/43/1 25/34/1 40/44/1
f 37/45/1 40/44/1 39/46/1
f 38/36/1 42/98/1 41/47/1
f 19/22/14 44/83/14 55/48/14
f 69/49/1 43/24/1 57/26/1
f 67/51/1 58/66/1 45/52/1
f 68/50/1 57/26/1 80/54/1
f 49/56/9 56/84/9 46/57/9
f 50/23/9 55/48/9 79/59/9
f 53/61/1 47/89/1 22/62/1
f 54/25/1 48/31/1 75/64/1
f 58/66/7 53/61/7 14/63/7
f 57/26/7 54/25/7 78/65/7
f 2/67/1 52/88/1 49/56/1
f 77/68/1 51/21/1 50/23/1
f 73/70/11 63/73/11 62/71/11
f 63/73/12 64/82/12 61/74/12
f 74/75/12 71/99/12 60/76/12
f 65/77/1 60/76/1 59/78/1
f 64/82/1 67/51/1 70/53/1
f 59/78/12 69/49/12 68/50/12
f 44/83/1 71/99/1 74/75/1
f 56/84/11 73/70/11 72/72/11
f 55/48/1 74/75/1 82/85/1
f 79/59/1 82/85/1 73/70/1
f 52/88/1 77/68/1 76/60/1
f 80/54/7 78/65/7 53/61/7
f 78/65/1 75/64/1 47/89/1
f 76/60/9 79/59/9 56/84/9
f 81/55/1 80/54/1 58/66/1
